
<global>
amp_veltrack=0
ampeg_attack=0.001
ampeg_release=1.25
</global>

<group>
color=red
group_label=Main_Hits_RR2
seq_length=4
seq_position=1

<region>
hivel=25
key=D3
lovel=0
offset=4348
sample=Snare_HotRods_Hits_P_D3_RR2.opus
</region>

<region>
hivel=50
key=D3
lovel=26
offset=894
sample=Snare_HotRods_Hits_MP_D3_RR2.opus
</region>

<region>
hivel=75
key=D3
lovel=51
offset=713
sample=Snare_HotRods_Hits_MF_D3_RR2.opus
</region>

<region>
hivel=127
key=D3
lovel=101
offset=698
sample=Snare_HotRods_Hits_FF_D3_RR2.opus
</region>

<region>
hivel=100
key=D3
lovel=76
offset=807
sample=Snare_HotRods_Hits_F_D3_RR2.opus
</region>
</group>

<group>
color=red
group_label=Main_Hits_RR4
seq_length=4
seq_position=2

<region>
hivel=25
key=D3
lovel=0
offset=4710
sample=Snare_HotRods_Hits_P_D3_RR4.opus
</region>

<region>
hivel=50
key=D3
lovel=26
offset=4080
sample=Snare_HotRods_Hits_MP_D3_RR4.opus
</region>

<region>
hivel=75
key=D3
lovel=51
offset=822
sample=Snare_HotRods_Hits_MF_D3_RR4.opus
</region>

<region>
hivel=127
key=D3
lovel=101
offset=719
sample=Snare_HotRods_Hits_FF_D3_RR4.opus
</region>

<region>
hivel=100
key=D3
lovel=76
offset=802
sample=Snare_HotRods_Hits_F_D3_RR4.opus
</region>
</group>

<group>
color=red
group_label=Main_Hits_RR6
seq_length=4
seq_position=3

<region>
hivel=25
key=D3
lovel=0
offset=2743
sample=Snare_HotRods_Hits_P_D3_RR6.opus
</region>

<region>
hivel=50
key=D3
lovel=26
offset=804
sample=Snare_HotRods_Hits_MP_D3_RR6.opus
</region>

<region>
hivel=75
key=D3
lovel=51
offset=719
sample=Snare_HotRods_Hits_MF_D3_RR6.opus
</region>

<region>
hivel=127
key=D3
lovel=101
offset=835
sample=Snare_HotRods_Hits_FF_D3_RR6.opus
</region>

<region>
hivel=100
key=D3
lovel=76
offset=856
sample=Snare_HotRods_Hits_F_D3_RR6.opus
</region>
</group>

<group>
color=red
group_label=Main_Hits_RR8
seq_length=4
seq_position=4

<region>
hivel=25
key=D3
lovel=0
offset=3720
sample=Snare_HotRods_Hits_P_D3_RR8.opus
</region>

<region>
hivel=50
key=D3
lovel=26
offset=722
sample=Snare_HotRods_Hits_MP_D3_RR8.opus
</region>

<region>
hivel=75
key=D3
lovel=51
offset=696
sample=Snare_HotRods_Hits_MF_D3_RR8.opus
</region>

<region>
hivel=127
key=D3
lovel=101
offset=782
sample=Snare_HotRods_Hits_FF_D3_RR8.opus
</region>

<region>
hivel=100
key=D3
lovel=76
offset=823
sample=Snare_HotRods_Hits_F_D3_RR8.opus
</region>
</group>

<group>
color=green
group_label=Alt_Hits_RR2
seq_length=2
seq_position=1

<region>
hivel=25
key=D4
lovel=0
offset=4457
sample=Snare_HotRods_Rim_Hit_P_D3_RR2.opus
</region>

<region>
hivel=50
key=D4
lovel=26
offset=4258
sample=Snare_HotRods_Rim_Hit_MP_D3_RR2.opus
</region>

<region>
hivel=75
key=D4
lovel=51
offset=3791
sample=Snare_HotRods_Rim_Hit_MF_D3_RR2.opus
</region>

<region>
hivel=127
key=D4
lovel=101
offset=660
sample=Snare_HotRods_Rim_Hit_FF_D3_RR2.opus
</region>

<region>
hivel=100
key=D4
lovel=76
offset=3202
sample=Snare_HotRods_Rim_Hit_F_D3_RR2.opus
</region>

<region>
hivel=25
key=D#4
lovel=0
offset=4870
sample=Snare_HotRods_Shell_Hit_P_D3_RR2.opus
</region>

<region>
hivel=50
key=D#4
lovel=26
offset=4373
sample=Snare_HotRods_Shell_Hit_MP_D3_RR2.opus
</region>

<region>
hivel=75
key=D#4
lovel=51
offset=5735
sample=Snare_HotRods_Shell_Hit_MF_D3_RR2.opus
</region>

<region>
hivel=127
key=D#4
lovel=101
offset=779
sample=Snare_HotRods_Shell_Hit_FF_D3_RR2.opus
</region>

<region>
hivel=100
key=D#4
lovel=76
offset=830
sample=Snare_HotRods_Shell_Hit_F_D3_RR2.opus
</region>
</group>

<group>
color=green
group_label=Alt_Hits_RR4
seq_length=2
seq_position=2

<region>
hivel=25
key=D4
lovel=0
offset=5677
sample=Snare_HotRods_Rim_Hit_P_D3_RR4.opus
</region>

<region>
hivel=50
key=D4
lovel=26
offset=4626
sample=Snare_HotRods_Rim_Hit_MP_D3_RR4.opus
</region>

<region>
hivel=75
key=D4
lovel=51
offset=4240
sample=Snare_HotRods_Rim_Hit_MF_D3_RR4.opus
</region>

<region>
hivel=127
key=D4
lovel=101
offset=823
sample=Snare_HotRods_Rim_Hit_FF_D3_RR4.opus
</region>

<region>
hivel=100
key=D4
lovel=76
offset=823
sample=Snare_HotRods_Rim_Hit_F_D3_RR4.opus
</region>

<region>
hivel=25
key=D#4
lovel=0
offset=3140
sample=Snare_HotRods_Shell_Hit_P_D3_RR4.opus
</region>

<region>
hivel=50
key=D#4
lovel=26
offset=3534
sample=Snare_HotRods_Shell_Hit_MP_D3_RR4.opus
</region>

<region>
hivel=75
key=D#4
lovel=51
offset=4488
sample=Snare_HotRods_Shell_Hit_MF_D3_RR4.opus
</region>

<region>
hivel=127
key=D#4
lovel=101
offset=715
sample=Snare_HotRods_Shell_Hit_FF_D3_RR4.opus
</region>

<region>
hivel=100
key=D#4
lovel=76
offset=820
sample=Snare_HotRods_Shell_Hit_F_D3_RR4.opus
</region>
</group>